<?xml version="1.0" encoding="UTF-8"?>
<svg width="200" height="200" viewBox="0 0 200 200" xmlns="http://www.w3.org/2000/svg">
    <!-- Background -->
    <rect width="200" height="200" fill="white"/>
    
    <!-- GitHub Logo - Simplified and recognizable -->
    <path d="M100 50C72.4 50 50 72.4 50 100c0 22.1 14.3 40.8 34.2 47.4 2.5.5 3.4-1.1 3.4-2.4 0-1.2 0-4.4-.1-8.6-13.9 3-16.8-6.7-16.8-6.7-2.3-5.8-5.6-7.3-5.6-7.3-4.5-3.1.3-3 .3-3 5 .4 7.7 5.2 7.7 5.2 4.5 7.7 11.8 5.5 14.7 4.2.4-3.2 1.7-5.5 3.1-6.7-11.2-1.3-23-5.6-23-25 0-5.5 2-10 5.2-13.5-.5-1.3-2.3-6.5.5-13.5 0 0 4.2-1.4 13.8 5.1 4-1.1 8.3-1.7 12.5-1.7s8.5.6 12.5 1.7c9.6-6.5 13.8-5.1 13.8-5.1 2.8 7 1 12.2.5 13.5 3.2 3.5 5.2 8 5.2 13.5 0 19.4-11.8 23.7-23.1 25 1.8 1.6 3.4 4.7 3.4 9.4 0 6.8-.1 12.3-.1 14 0 1.4.9 2.9 3.4 2.4C135.7 140.8 150 122.1 150 100c0-27.6-22.4-50-50-50z" fill="#084594"/>
    
    <!-- Title -->
    <text x="100" y="180" text-anchor="middle" font-family="Arial" font-size="16" fill="#333">
        GitHub
    </text>
</svg>
