<?xml version="1.0" encoding="UTF-8"?>
<svg width="200" height="200" viewBox="0 0 200 200" xmlns="http://www.w3.org/2000/svg">
    <!-- Background -->
    <rect width="200" height="200" fill="white"/>
    
    <!-- Binary Heatmap Grid -->
    <rect x="40" y="40" width="30" height="30" fill="#ffffff"/>
    <rect x="70" y="40" width="30" height="30" fill="#084594"/>
    <rect x="100" y="40" width="30" height="30" fill="#ffffff"/>
    <rect x="130" y="40" width="30" height="30" fill="#084594"/>
    
    <rect x="40" y="70" width="30" height="30" fill="#084594"/>
    <rect x="70" y="70" width="30" height="30" fill="#ffffff"/>
    <rect x="100" y="70" width="30" height="30" fill="#084594"/>
    <rect x="130" y="70" width="30" height="30" fill="#ffffff"/>
    
    <rect x="40" y="100" width="30" height="30" fill="#ffffff"/>
    <rect x="70" y="100" width="30" height="30" fill="#084594"/>
    <rect x="100" y="100" width="30" height="30" fill="#ffffff"/>
    <rect x="130" y="100" width="30" height="30" fill="#084594"/>
    
    <rect x="40" y="130" width="30" height="30" fill="#084594"/>
    <rect x="70" y="130" width="30" height="30" fill="#ffffff"/>
    <rect x="100" y="130" width="30" height="30" fill="#084594"/>
    <rect x="130" y="130" width="30" height="30" fill="#ffffff"/>
    
    <!-- Grid Lines -->
    <line x1="40" y1="40" x2="160" y2="40" stroke="#ccc" stroke-width="1"/>
    <line x1="40" y1="70" x2="160" y2="70" stroke="#ccc" stroke-width="1"/>
    <line x1="40" y1="100" x2="160" y2="100" stroke="#ccc" stroke-width="1"/>
    <line x1="40" y1="130" x2="160" y2="130" stroke="#ccc" stroke-width="1"/>
    <line x1="40" y1="160" x2="160" y2="160" stroke="#ccc" stroke-width="1"/>
    
    <line x1="40" y1="40" x2="40" y2="160" stroke="#ccc" stroke-width="1"/>
    <line x1="70" y1="40" x2="70" y2="160" stroke="#ccc" stroke-width="1"/>
    <line x1="100" y1="40" x2="100" y2="160" stroke="#ccc" stroke-width="1"/>
    <line x1="130" y1="40" x2="130" y2="160" stroke="#ccc" stroke-width="1"/>
    <line x1="160" y1="40" x2="160" y2="160" stroke="#ccc" stroke-width="1"/>
    
    <!-- Title -->
    <text x="100" y="180" text-anchor="middle" font-family="Arial" font-size="16">
        Heatmap
    </text>
</svg>
