<?xml version="1.0" encoding="UTF-8"?>
<svg width="30" height="30" viewBox="0 0 30 30" fill="none" xmlns="http://www.w3.org/2000/svg">
  <path d="M19 3H5c-1.1 0-2 .9-2 2v14c0 1.1.9 2 2 2h14c1.1 0 2-.9 2-2V5c0-1.1-.9-2-2-2zm-8.5 14h-2v-2h2v2zm0-4h-2V7h2v6zm5 4h-2v-2h2v2zm0-4h-2V7h2v6z" fill="currentColor"/>
  <path d="M13 7h-2v6h2V7zm5 0h-2v6h2V7zm0 8h-2v2h2v-2zm-5 0h-2v2h2v-2zm-5-8H6v6h2V7zm0 8H6v2h2v-2z" fill="currentColor"/>
  <text x="12" y="28" font-size="4" text-anchor="middle" fill="currentColor">MEDICINE</text>
</svg>
