<?xml version="1.0" encoding="UTF-8"?>
<svg width="30" height="30" viewBox="0 0 30 30" fill="none" xmlns="http://www.w3.org/2000/svg">
  <path d="M19.8 18.4L14 10.67V6.5l1.35-1.69c.26-.33.03-.81-.39-.81H9.04c-.42 0-.65.48-.39.81L10 6.5v4.17L4.2 18.4c-.49.66-.02 1.6.8 1.6h14c.82 0 1.29-.94.8-1.6zM7.85 19l5.96-8.03c.06-.08.09-.17.09-.27V6.5l-.56-.7h3.32l-.56.7v4.2c0 .1.03.19.09.27L22.15 19H7.85z" fill="currentColor"/>
  <text x="12" y="28" font-size="4" text-anchor="middle" fill="currentColor">SCIENCE</text>
</svg>
